<svg width="26" height="33" viewbox="0 0 26 33" fill="none" xmlns="http://www.w3.org/2000/svg">
<g clip-path="url(#clip0_36_61)">
<path d="M21.1892 17.4583C21.2204 14.9907 22.4895 12.7114 24.552 11.4189C23.245 9.51622 21.1342 8.35312 18.8565 8.28048C16.4602 8.0241 14.1371 9.74205 12.916 9.74205C11.6712 9.74205 9.79111 8.30593 7.76655 8.34839C5.10275 8.43611 2.67956 9.94242 1.38357 12.3162C-1.3763 17.1866 0.682314 24.3445 3.32604 28.2814C4.64875 30.2092 6.19462 32.3626 8.21736 32.2862C10.1967 32.2025 10.936 30.9997 13.3253 30.9997C15.6924 30.9997 16.3859 32.2862 18.4497 32.2377C20.5737 32.2025 21.9119 30.3013 23.1882 28.3553C24.1385 26.9817 24.8698 25.4635 25.355 23.8571C22.8324 22.7696 21.1921 20.2501 21.1892 17.4583Z" fill="#203A59"/>
<path d="M17.2911 5.69152C18.4492 4.27449 19.0197 2.45314 18.8816 0.614258C17.1123 0.803669 15.478 1.66557 14.3043 3.02824C13.1453 4.37269 12.5582 6.13159 12.6722 7.91753C14.4652 7.93635 16.1676 7.11591 17.2911 5.69152Z" fill="#203A59"/>
</g>
<defs>
<clipPath id="clip0_36_61">
<rect width="26" height="32" fill="white" transform="translate(0 0.293945)"/>
</clipPath>
</defs>
</svg>
