<svg width="29" height="33" viewbox="0 0 29 33" fill="none" xmlns="http://www.w3.org/2000/svg">
<g clip-path="url(#clip0_36_79)">
<path d="M0.570563 0.793185C0.169412 1.27455 -0.0330636 1.89078 0.00440888 2.51626V29.7409C-0.0330636 30.3664 0.169412 30.9826 0.570563 31.464L0.656717 31.5501L15.9059 16.3132V15.9563L0.656717 0.707031L0.570563 0.793185Z" fill="url(#paint0_linear_36_79)"/>
<path d="M20.9522 21.3962L15.906 16.3131V15.9562L20.9522 10.8608L21.0629 10.9224L27.106 14.3562C28.8291 15.3285 28.8291 16.9285 27.106 17.9131L21.0875 21.3347L20.9522 21.3962Z" fill="url(#paint1_linear_36_79)"/>
<path d="M21.0998 21.3228L15.9059 16.1289L0.570557 31.4643C1.29513 32.1012 2.37047 32.1323 3.13056 31.5381L21.1121 21.3228" fill="url(#paint2_linear_36_79)"/>
<path d="M21.0999 10.9349L3.11835 0.719512C2.35826 0.125389 1.28293 0.156408 0.55835 0.793359L15.906 16.1287L21.0999 10.9349Z" fill="url(#paint3_linear_36_79)"/>
</g>
<defs>
<linearGradient id="paint0_linear_36_79" x1="9.70803" y1="2.23319" x2="-3.36439" y2="15.3056" gradientUnits="userSpaceOnUse">
<stop stop-color="#00A0FF"/>
<stop offset="0.01" stop-color="#00A1FF"/>
<stop offset="0.26" stop-color="#00BEFF"/>
<stop offset="0.51" stop-color="#00D2FF"/>
<stop offset="0.76" stop-color="#00DFFF"/>
<stop offset="1" stop-color="#00E3FF"/>
</linearGradient>
<linearGradient id="paint1_linear_36_79" x1="29.3583" y1="16.1285" x2="-0.413994" y2="16.1285" gradientUnits="userSpaceOnUse">
<stop stop-color="#FFE000"/>
<stop offset="0.41" stop-color="#FFBD00"/>
<stop offset="0.78" stop-color="#FFA500"/>
<stop offset="1" stop-color="#FF9C00"/>
</linearGradient>
<linearGradient id="paint2_linear_36_79" x1="18.2813" y1="21.0236" x2="-4.05029" y2="43.3454" gradientUnits="userSpaceOnUse">
<stop stop-color="#FF3A44"/>
<stop offset="1" stop-color="#C31162"/>
</linearGradient>
<linearGradient id="paint3_linear_36_79" x1="-3.29396" y1="-1.57956" x2="6.6737" y2="8.3881" gradientUnits="userSpaceOnUse">
<stop stop-color="#32A071"/>
<stop offset="0.07" stop-color="#2DA771"/>
<stop offset="0.48" stop-color="#15CF74"/>
<stop offset="0.8" stop-color="#06E775"/>
<stop offset="1" stop-color="#00F076"/>
</linearGradient>
<clipPath id="clip0_36_79">
<rect width="29" height="32" fill="white" transform="translate(0 0.293945)"/>
</clipPath>
</defs>
</svg>
