<svg width="60" height="60" viewbox="0 0 60 60" fill="none" xmlns="http://www.w3.org/2000/svg">
<circle cx="30" cy="30" r="30" fill="#FF6A00"/>
<path d="M52.1666 37.2447C51.9404 37.2447 51.7423 37.3966 51.6837 37.6151C51.6251 37.8337 51.7205 38.0643 51.9164 38.1776C53.6372 39.1724 54.677 41.153 54.2502 43.268L54.25 43.268L54.2478 43.2805C53.8659 45.457 51.9954 47.2145 49.802 47.4508L49.8017 47.4509C46.7367 47.7831 44.1577 45.4128 44.1577 42.4299V42.4296V42.4292V42.4289V42.4286V42.4283V42.428V42.4278V42.4275V42.4272V42.4269V42.4266V42.4263V42.426V42.4257V42.4254V42.4251V42.4248V42.4246V42.4243V42.424V42.4237V42.4234V42.4231V42.4229V42.4226V42.4223V42.422V42.4218V42.4215V42.4212V42.421V42.4207V42.4204V42.4201V42.4199V42.4196V42.4193V42.4191V42.4188V42.4186V42.4183V42.418V42.4178V42.4175V42.4173V42.417V42.4168V42.4165V42.4163V42.416V42.4157V42.4155V42.4152V42.415V42.4148V42.4145V42.4143V42.414V42.4138V42.4135V42.4133V42.4131V42.4128V42.4126V42.4123V42.4121V42.4119V42.4116V42.4114V42.4112V42.4109V42.4107V42.4105V42.4102V42.41V42.4098V42.4095V42.4093V42.4091V42.4089V42.4086V42.4084V42.4082V42.408V42.4078V42.4075V42.4073V42.4071V42.4069V42.4067V42.4064V42.4062V42.406V42.4058V42.4056V42.4054V42.4052V42.405V42.4047V42.4045V42.4043V42.4041V42.4039V42.4037V42.4035V42.4033V42.4031V42.4029V42.4027V42.4025V42.4023V42.4021V42.4019V42.4017V42.4015V42.4013V42.4011V42.4009V42.4007V42.4005V42.4003V42.4001V42.3999V42.3997V42.3995V42.3993V42.3991V42.3989V42.3988V42.3986V42.3984V42.3982V42.398V42.3978V42.3976V42.3974V42.3973V42.3971V42.3969V42.3967V42.3965V42.3963V42.3962V42.396V42.3958V42.3956V42.3954V42.3952V42.3951V42.3949V42.3947V42.3945V42.3944V42.3942V42.394V42.3938V42.3937V42.3935V42.3933V42.3931V42.393V42.3928V42.3926V42.3924V42.3923V42.3921V42.3919V42.3917V42.3916V42.3914V42.3912V42.3911V42.3909V42.3907V42.3906V42.3904V42.3902V42.3901V42.3899V42.3897V42.3896V42.3894V42.3892V42.3891V42.3889V42.3887V42.3886V42.3884V42.3883V42.3881V42.3879V42.3878V42.3876V42.3874V42.3873V42.3871V42.387V42.3868V42.3866V42.3865V42.3863V42.3862V42.386V42.3858V42.3857V42.3855V42.3854V42.3852V42.385V42.3849V42.3847V42.3846V42.3844V42.3843V42.3841V42.3839V42.3838V42.3836V42.3835V42.3833V42.3832V42.383V42.3829V42.3827V42.3825V42.3824V42.3822V42.3821V42.3819V42.3818V42.3816V42.3815V42.3813V42.3812V42.381V42.3809V42.3807V42.3805V42.3804V42.3802V42.3801V42.3799V42.3798V42.3796V42.3795V42.3793V42.3792V42.379V42.3789V42.3787V42.3786V42.3784V42.3783V42.3781V42.378V42.3778V42.3776V42.3775V42.3773V42.3772V42.377V42.3769V42.3767V42.3766V42.3764V42.3763V42.3761V42.376V42.3758V42.3757V42.3755V42.3754V42.3752V42.375V42.3749V42.3747V42.3746V42.3744V42.3743V42.3741V42.374V42.3738V42.3737V42.3735V42.3734V42.3732V42.373V42.3729V42.3727V42.3726V42.3724V42.3723V42.3721V42.372V42.3718V42.3716V42.3715V42.3713V42.3712V42.371V42.3709V42.3707V42.3706V42.3704V42.3702V42.3701V42.3699V42.3698V42.3696V42.3694V42.3693V42.3691V42.369V42.3688V42.3686V42.3685V42.3683V42.3682V42.368V42.3678V42.3677V42.3675V42.3673V42.3672V42.367V42.3669V42.3667V42.3665V42.3664V42.3662V42.366V42.3659V42.3657V42.3655V42.3654V42.3652V42.365V42.3649V42.3647V42.3645V42.3644V42.3642V42.364V42.3638V42.3637V42.3635V42.3633V42.3632V42.363V42.3628V42.3626V42.3625V42.3623V42.3621V42.3619V42.3618V42.3616V42.3614V42.3612V42.3611V42.3609V42.3607V42.3605V42.3603V42.3602V42.36V42.3598V42.3596V42.3594V42.3593V42.3591V42.3589V42.3587V42.3585V42.3583V42.3582V42.358V42.3578V42.3576V42.3574V42.3572V42.357V42.3568V42.3566V42.3565V42.3563V42.3561V42.3559V42.3557V42.3555V42.3553V42.3551V42.3549V42.3547V42.3545V42.3543V42.3541V42.3539V42.3537V42.3535V42.3533V42.3531V42.3529V42.3527V42.3525V42.3523V42.3521V42.3519V42.3517V42.3515V42.3513V42.3511V42.3509V42.3506V42.3504V42.3502V42.35V42.3498V42.3496V42.3494V42.3491V42.3489V42.3487V42.3485V42.3483V42.3481V42.3478V42.3476V42.3474V42.3472V42.347V42.3467V42.3465V42.3463V42.3461V42.3458V42.3456V42.3454V42.3451V42.3449V42.3447V42.3444V42.3442V42.344V42.3437V42.3435V42.3433V42.343V42.3428V42.3425V42.3423V42.3421V42.3418V42.3416V42.3413V42.3411V42.3408V42.3406V42.3403V42.3401V42.3398V42.3396V42.3393V42.3391V42.3388V42.3386V42.3383V42.3381V42.3378V42.3376V42.3373V42.337V42.3368V42.3365V42.3363V42.336V42.3357V42.3355V42.3352V42.3349V42.3346V42.3344V42.3341V42.3338V42.3336V42.3333V42.333V42.3327V42.3325V42.3322V42.3319V42.3316V42.3313V42.331V42.3308V42.3305V42.3302V42.3299V42.3296V42.3293V42.329V42.3287V42.3284V42.3281V42.3278V42.3275V42.3273V42.327V42.3267V42.3263V42.326V42.3257C44.1577 42.1186 44.0299 41.9328 43.8364 41.8588C43.6429 41.7847 43.4238 41.8377 43.2855 41.9919C42.9396 42.3775 42.4897 42.6066 42.0295 42.6066H31.4721C31.2072 42.6066 31.0426 42.6054 30.834 42.5641C30.6969 42.5369 30.5547 42.5683 30.4419 42.6507C30.3291 42.7331 30.2558 42.859 30.24 42.9978C29.9533 45.5077 27.8004 47.5 25.1692 47.5C22.3916 47.5 20.1016 45.2699 20.1016 42.4819C20.1016 42.4145 20.1101 42.3417 20.124 42.2321L20.1253 42.2218C20.1376 42.1241 20.1541 41.9932 20.1541 41.8572C20.1541 41.5811 19.9303 41.3572 19.6541 41.3572H18.4461C18.4283 41.3572 18.4082 41.35 18.391 41.3329C18.376 41.3181 18.37 41.3026 18.3686 41.29C18.4224 40.1626 18.7372 37.7868 20.2793 36.1629C20.382 36.0548 20.431 35.9066 20.4132 35.7586C20.3953 35.6107 20.3124 35.4784 20.187 35.3979L17.3647 33.5848C17.2739 33.5146 17.2467 33.4092 17.2773 33.3065C17.2929 33.2542 17.3214 33.2137 17.3542 33.1878C17.3836 33.1644 17.4281 33.1431 17.5007 33.1431H34.3609C34.5911 33.1431 34.7551 33.3404 34.713 33.5757L34.4014 34.8113C34.3528 35.0039 34.1862 35.1103 34.0458 35.1103H33.4155C33.1447 35.1103 32.9231 35.326 32.9157 35.5967L32.8109 39.4375C32.7419 40.4248 33.5237 41.1599 34.466 41.1599H40.4012C41.0663 41.1599 41.6633 40.8938 42.1188 40.4424C42.1233 40.4379 42.1277 40.4334 42.132 40.4288L44.128 38.2944L44.1286 38.2937C44.8682 37.4997 45.1749 36.4032 44.9904 35.3665C44.9897 35.3627 44.9889 35.3589 44.9882 35.355C44.9875 35.3516 44.9867 35.3482 44.986 35.3448C44.8551 34.7611 44.7069 34.0558 44.5488 33.303C44.2071 31.6769 43.8188 29.8287 43.4573 28.5031C43.4088 28.3251 43.2662 28.1884 43.0864 28.1472C42.8445 28.0919 42.6972 27.9954 42.5828 27.8328C42.4554 27.6518 42.3411 27.3491 42.2666 26.8278C42.2619 26.5199 42.2006 26.2277 42.1466 26.0136C42.0841 25.7658 41.8448 25.605 41.5917 25.6408L40.121 25.849C40.0144 25.8641 39.9156 25.9132 39.8391 25.989C39.6871 26.1396 39.5075 26.2085 39.2457 26.2085C39.1904 26.2085 39.1486 26.2082 39.1112 26.2044C39.0981 26.2031 39.0891 26.2017 39.0836 26.2007C39.0551 26.1878 39.0253 26.1776 38.9948 26.1703L35.5282 25.3374C35.5165 25.3346 35.5048 25.3322 35.4929 25.3302C35.3223 25.302 35.1095 25.174 34.9601 24.9889L34.9602 24.9889L34.9537 24.9812L34.571 25.303L34.9537 24.9812L34.9537 24.9811L34.9536 24.9811L34.9534 24.9809L34.9528 24.9801L34.9503 24.9772L34.941 24.9661L34.9055 24.9242C34.8746 24.8878 34.8297 24.835 34.7733 24.7692C34.6605 24.6377 34.5013 24.4536 34.3156 24.2432C34.1836 24.0937 33.9753 24.037 33.7857 24.0988C33.5961 24.1606 33.4614 24.3292 33.4429 24.5278L33.1277 27.9115C33.1147 28.0516 33.1613 28.1907 33.256 28.2947C33.3507 28.3986 33.4849 28.4579 33.6256 28.4579H38.1952C38.5668 28.4579 38.8829 28.5804 39.0776 28.8055C39.3054 29.0689 39.4261 29.4143 39.4285 29.7695L39.0615 37.9795C39.0229 38.6432 38.4617 39.1708 37.775 39.1708H37.7373C37.047 39.1263 36.5047 38.5593 36.541 37.8753L36.541 37.8753L36.5413 37.8691L36.8039 31.414C36.8094 31.278 36.7593 31.1456 36.665 31.0474C36.5707 30.9492 36.4405 30.8937 36.3043 30.8937H28.9509C28.6029 30.8937 28.2235 30.7339 28.016 30.494C27.7908 30.2336 27.6769 29.9022 27.7149 29.5199L28.5541 21.9306C28.6942 20.9729 29.1935 20.1874 29.98 19.7543C29.986 19.751 29.9919 19.7476 29.9978 19.744C30.3464 19.5329 30.7521 19.4813 31.2117 19.5216C31.5911 19.5549 31.9619 19.6448 32.3397 19.7364C32.4302 19.7583 32.521 19.7804 32.6124 19.8017C33.3385 19.9931 33.7886 20.4722 34.0237 20.7225C34.054 20.7548 34.0808 20.7833 34.1041 20.8069C34.901 21.6801 35.4583 22.349 35.9223 22.9058C36.0317 23.0371 36.1359 23.1621 36.2368 23.2822C36.3048 23.363 36.3966 23.4203 36.4992 23.4457L39.4406 24.1745C39.4482 24.1764 39.4559 24.1781 39.4636 24.1796C39.7874 24.2438 40.075 24.5108 40.1853 24.8752C40.255 25.1057 40.4792 25.2537 40.7186 25.2273L41.1864 25.1758C42.2983 25.0752 43.3611 24.835 44.426 24.5943C44.5041 24.5766 44.5823 24.559 44.6605 24.5414L44.6605 24.5415L44.6709 24.5389C45.1001 24.4326 45.4077 24.3762 45.6141 24.3898C45.696 24.3952 45.7294 24.4104 45.7374 24.4147C45.7395 24.4184 45.7442 24.4281 45.7493 24.4465L45.7493 24.4465L45.751 24.4524C45.7877 24.58 45.8221 24.6939 45.8533 24.7977C45.9195 25.0174 45.9718 25.1909 46.0039 25.3498C46.0416 25.5368 46.1825 25.686 46.3669 25.7345C46.5514 25.783 46.7474 25.7223 46.8722 25.578C47.0897 25.3265 47.4229 25.1783 47.7546 25.1783H48.5677V28.1346H47.7546C47.5025 28.1346 47.3348 28.0948 47.1698 27.9967C46.9803 27.884 46.7394 27.9087 46.5767 28.0575C46.4141 28.2062 46.3681 28.444 46.4634 28.6427L48.5058 32.8989C48.6855 33.3261 49.0858 33.6094 49.4886 33.7425C49.4991 33.746 49.5096 33.7491 49.5203 33.7518C50.1075 33.9036 51.1826 34.2277 52.1524 34.8093C53.1264 35.3934 53.9098 36.1846 54.088 37.2447H52.2192H52.1666ZM22.1228 41.3572C21.8937 41.3572 21.694 41.5129 21.638 41.7349C21.5701 42.0041 21.5702 42.2658 21.5703 42.4627L21.5703 42.4819C21.5703 44.5322 23.2165 46.1574 25.2742 46.1574C27.3213 46.1574 28.9886 44.5381 28.873 42.4655C28.8714 42.3509 28.8533 42.2438 28.8418 42.1754L28.84 42.1647C28.8256 42.0792 28.8206 42.0426 28.8206 42.0134V41.8572C28.8206 41.5811 28.5968 41.3572 28.3206 41.3572H26.4298C26.2562 41.3572 26.095 41.4473 26.004 41.5951C25.913 41.743 25.9052 41.9274 25.9834 42.0824C26.0575 42.2293 26.0873 42.3609 26.0873 42.4819C26.0873 42.943 25.7251 43.3354 25.2217 43.3354C24.7456 43.3354 24.3561 42.97 24.3561 42.4819C24.3561 42.3186 24.3807 42.2398 24.4601 42.0824C24.5383 41.9274 24.5305 41.743 24.4395 41.5951C24.3484 41.4473 24.1873 41.3572 24.0137 41.3572H22.1228ZM45.6263 42.4819C45.6263 44.5322 47.2726 46.1574 49.3303 46.1574C51.3302 46.1574 53.0343 44.5375 53.0343 42.4819C53.0343 40.4316 51.3881 38.8064 49.3303 38.8064C47.2726 38.8064 45.6263 40.4316 45.6263 42.4819Z" stroke="white" stroke-linejoin="round"/>
<path d="M48.4651 42.4819C48.4651 42.0208 48.8273 41.6284 49.3307 41.6284C49.8068 41.6284 50.1963 41.9938 50.1963 42.4819C50.1963 42.943 49.8341 43.3354 49.3307 43.3354C48.8546 43.3354 48.4651 42.97 48.4651 42.4819Z" stroke="white" stroke-linejoin="round"/>
<path d="M24.3813 30.9457H17.6582C17.2999 30.9457 17.0027 30.6448 17.0027 30.3005V24.0015C17.0027 23.6572 17.2999 23.3562 17.6582 23.3562H24.3813C24.7397 23.3562 25.0368 23.6572 25.0368 24.0015V30.3005C25.0368 30.6448 24.7397 30.9457 24.3813 30.9457Z" stroke="white" stroke-linejoin="round"/>
<path d="M35.4199 16.0183C34.8736 15.8909 34.4336 15.548 34.1816 15.2135C35.1156 15.3547 35.8705 15.2899 36.3673 15.2052C36.5356 15.6294 36.6594 15.9958 36.7506 16.3158C36.3978 16.252 35.9613 16.1594 35.4325 16.0214L35.4325 16.0213L35.4199 16.0183Z" stroke="white" stroke-linejoin="round"/>
<path d="M36.3881 18.9394C36.3791 18.9368 36.37 18.9345 36.3608 18.9325L30.5372 17.6325C30.5102 17.6256 30.4891 17.6181 30.4733 17.6113C30.4676 17.6088 30.4628 17.6065 30.4588 17.6045C30.447 17.5777 30.4328 17.552 30.4164 17.5276C30.2284 17.2482 29.9177 16.6905 29.7583 16.0412C29.5993 15.3931 29.6026 14.7077 29.9592 14.1049L29.9592 14.1049L29.9639 14.0966C30.4674 13.2071 31.5813 12.5842 32.7906 12.5078C33.7104 12.4497 34.6336 12.7109 35.3287 13.3705C34.966 13.3741 34.533 13.3484 34.0434 13.2567C33.514 13.1354 33.0488 13.1822 32.6807 13.401C32.3106 13.6212 32.1113 13.9726 32.0348 14.3136L32.0348 14.3136L32.0336 14.3191C31.8832 15.0271 32.223 15.8308 32.7324 16.4565C33.2581 17.1023 34.0469 17.6675 34.9865 17.878C35.7836 18.0576 36.3871 18.1646 36.8464 18.2318C36.8034 18.3602 36.7515 18.4955 36.6928 18.6486C36.6744 18.6965 36.6554 18.7462 36.6357 18.7979C36.5973 18.8661 36.551 18.9081 36.5131 18.9286C36.4792 18.9469 36.4424 18.9547 36.3881 18.9394Z" stroke="white" stroke-linejoin="round"/>
<path d="M13.6392 28.947C13.6392 29.2913 13.3946 29.5402 13.0362 29.5402H6.10301C5.74464 29.5402 5.5 29.2913 5.5 28.947C5.5 28.6026 5.74464 28.3538 6.10301 28.3538H13.0362C13.3946 28.3538 13.6392 28.6026 13.6392 28.947Z" stroke="white" stroke-linejoin="round"/>
<path d="M14.3748 33.6842C14.3748 34.0286 14.1301 34.2774 13.7718 34.2774H6.89109C6.53273 34.2774 6.28809 34.0286 6.28809 33.6842C6.28809 33.3601 6.56376 33.091 6.83857 33.091H13.7718C14.1301 33.091 14.3748 33.3399 14.3748 33.6842Z" stroke="white" stroke-linejoin="round"/>
<path d="M7.62645 37.8282H14.5596C14.8811 37.8282 15.1626 38.0923 15.1626 38.4214C15.1626 38.7658 14.918 39.0146 14.5596 39.0146H7.62645C7.26808 39.0146 7.02344 38.7658 7.02344 38.4214C7.02344 38.0771 7.26808 37.8282 7.62645 37.8282Z" stroke="white" stroke-linejoin="round"/>
</svg>
