<svg width="967" height="339" viewbox="0 0 967 339" fill="none" xmlns="http://www.w3.org/2000/svg">
<g opacity="0.2">
<mask id="mask0_30_466" style="mask-type:alpha" maskUnits="userSpaceOnUse" x="0" y="0" width="967" height="331">
<rect x="0.5" y="0.793945" width="966" height="329" rx="23.5" fill="#E24329" stroke="#E24329"/>
</mask>
<g mask="url(#mask0_30_466)">
<circle cx="491" cy="16.2939" r="6.5" fill="#E24329" stroke="#E24329"/>
<circle cx="189" cy="330.294" r="17.5" fill="#E24329" stroke="#E24329"/>
<path d="M909.86 36.5039V37.0039H910.36H917.06V41.1539H910.36H909.86V41.6539V48.3539H905.7V41.6539V41.1539H905.2H898.5V37.0039H905.2H905.7V36.5039V29.7939H909.86V36.5039Z" fill="#E24329" stroke="#E24329"/>
<path d="M950.59 41.1539H950.09V41.6539V48.3539H945.94V41.6539V41.1539H945.44H938.74V37.0039H945.44H945.94V36.5039V29.7939H950.09V36.5039V37.0039H950.59H957.3V41.1539H950.59Z" fill="#E24329" stroke="#E24329"/>
<path d="M115.247 251.294L108.595 246.145L101.947 251.294L95.2994 246.145L88.6471 251.294L81.9994 246.145L75.3518 251.294L68.6994 246.145L62.0518 251.294L55.3994 246.145" stroke="#E24329" stroke-width="2.8347" stroke-miterlimit="10"/>
<path d="M115.247 243.371L108.595 238.217L101.947 243.371L95.2994 238.217L88.6471 243.371L81.9994 238.217L75.3518 243.371L68.6994 238.217L62.0518 243.371L55.3994 238.217" stroke="#E24329" stroke-width="2.8347" stroke-miterlimit="10"/>
<path d="M115.247 235.443L108.595 230.294L101.947 235.443L95.2994 230.294L88.6471 235.443L81.9994 230.294L75.3518 235.443L68.6994 230.294L62.0518 235.443L55.3994 230.294" stroke="#E24329" stroke-width="2.8347" stroke-miterlimit="10"/>
<path d="M844.5 257.566V254.794H847.272V257.566H844.5Z" fill="#E24329" stroke="#E24329"/>
<path d="M858.272 257.566V254.794H861.045V257.566H858.272Z" fill="#E24329" stroke="#E24329"/>
<path d="M872.045 257.566V254.794H874.817V257.566H872.045Z" fill="#E24329" stroke="#E24329"/>
<path d="M885.817 257.566V254.794H888.589V257.566H885.817Z" fill="#E24329" stroke="#E24329"/>
<path d="M899.589 257.566V254.794H902.362V257.566H899.589Z" fill="#E24329" stroke="#E24329"/>
<path d="M844.5 271.339V268.566H847.272V271.339H844.5Z" fill="#E24329" stroke="#E24329"/>
<path d="M858.272 271.339V268.566H861.045V271.339H858.272Z" fill="#E24329" stroke="#E24329"/>
<path d="M872.045 271.339V268.566H874.817V271.339H872.045Z" fill="#FF6A00" stroke="#E24329"/>
<path d="M885.817 271.339V268.566H888.589V271.339H885.817Z" fill="#E24329" stroke="#E24329"/>
<path d="M899.589 271.339V268.566H902.362V271.339H899.589Z" fill="#E24329" stroke="#E24329"/>
<path d="M844.5 285.111V282.339H847.272V285.111H844.5Z" fill="#E24329" stroke="#E24329"/>
<path d="M858.272 285.111V282.339H861.045V285.111H858.272Z" fill="#FF6A00" stroke="#E24329"/>
<path d="M872.045 285.111V282.339H874.817V285.111H872.045Z" fill="#E24329" stroke="#E24329"/>
<path d="M885.817 285.111V282.339H888.589V285.111H885.817Z" fill="#E24329" stroke="#E24329"/>
<path d="M899.589 285.111V282.339H902.362V285.111H899.589Z" fill="#E24329" stroke="#E24329"/>
<path d="M17.5 26.5663V23.7939H20.2724V26.5663H17.5Z" fill="#E24329" stroke="#E24329"/>
<path d="M31.2725 26.5663V23.7939H34.0449V26.5663H31.2725Z" fill="#E24329" stroke="#E24329"/>
<path d="M45.0447 26.5663V23.7939H47.8171V26.5663H45.0447Z" fill="#E24329" stroke="#E24329"/>
<path d="M58.8169 26.5663V23.7939H61.5893V26.5663H58.8169Z" fill="#E24329" stroke="#E24329"/>
<path d="M72.5894 26.5663V23.7939H75.3617V26.5663H72.5894Z" fill="#E24329" stroke="#E24329"/>
<path d="M17.5 40.3388V37.5664H20.2724V40.3388H17.5Z" fill="#E24329" stroke="#E24329"/>
<path d="M31.2725 40.3388V37.5664H34.0449V40.3388H31.2725Z" fill="#E24329" stroke="#E24329"/>
<path d="M45.0447 40.3388V37.5664H47.8171V40.3388H45.0447Z" fill="#FF6A00" stroke="#E24329"/>
<path d="M58.8169 40.3388V37.5664H61.5893V40.3388H58.8169Z" fill="#E24329" stroke="#E24329"/>
<path d="M72.5894 40.3388V37.5664H75.3617V40.3388H72.5894Z" fill="#E24329" stroke="#E24329"/>
<path d="M17.5 54.1112V51.3389H20.2724V54.1112H17.5Z" fill="#E24329" stroke="#E24329"/>
<path d="M31.2725 54.1112V51.3389H34.0449V54.1112H31.2725Z" fill="#FF6A00" stroke="#E24329"/>
<path d="M45.0447 54.1112V51.3389H47.8171V54.1112H45.0447Z" fill="#E24329" stroke="#E24329"/>
<path d="M58.8169 54.1112V51.3389H61.5893V54.1112H58.8169Z" fill="#E24329" stroke="#E24329"/>
<path d="M72.5894 54.1112V51.3389H75.3617V54.1112H72.5894Z" fill="#E24329" stroke="#E24329"/>
</g>
</g>
</svg>
